<svg xmlns="http://www.w3.org/2000/svg" x="0px" y="0px"
width="220" height="223"
viewBox="0 0 172 172"
style=" fill:#000000;"><g fill="none" fill-rule="nonzero" stroke="none" stroke-width="1" stroke-linecap="butt" stroke-linejoin="miter" stroke-miterlimit="10" stroke-dasharray="" stroke-dashoffset="0" font-family="none" font-weight="none" font-size="none" text-anchor="none" style="mix-blend-mode: normal"><path d="M0,172v-172h172v172z" fill="none"></path><g><path d="M86,14.33333c-39.58041,0 -71.66667,32.08626 -71.66667,71.66667c0,39.58041 32.08626,71.66667 71.66667,71.66667c39.58041,0 71.66667,-32.08626 71.66667,-71.66667c0,-39.58041 -32.08626,-71.66667 -71.66667,-71.66667z" fill="#ffb443"></path><path d="M64.5,65.39583h43v48.375h-43z" fill="#4e342e"></path><path d="M86,157.66667c16.0605,0 30.83458,-5.34633 42.785,-14.26883c-2.20017,-26.43425 -28.45167,-32.3145 -28.45167,-32.3145h-28.66667c0,0 -26.25867,5.7835 -28.45167,32.3145c11.95042,8.9225 26.7245,14.26883 42.785,14.26883z" fill="#ff1744"></path><path d="M86,124.52083c-5.15642,0 -12.54167,-13.4375 -12.54167,-13.4375v-17.91667h25.08333v17.91667c0,0 -7.38525,13.4375 -12.54167,13.4375" fill="#ef8d3c"></path><path d="M111.08333,82.41667c0,13.35867 -11.72467,25.08333 -25.08333,25.08333c-13.36225,0 -25.08333,-11.72467 -25.08333,-25.08333v-21.5c0,-13.35867 50.16667,-20.51817 50.16667,0zM86,129c10.39525,0 12.54167,-17.91667 12.54167,-17.91667c0,0 -6.67933,10.75 -12.54167,10.75c-5.86233,0 -12.54167,-10.75 -12.54167,-10.75c0,0 2.14642,17.91667 12.54167,17.91667" fill="#ffaa45"></path><path d="M93.16667,78.83333c0,-1.97442 1.60533,-3.58333 3.58333,-3.58333c1.978,0 3.58333,1.60892 3.58333,3.58333c0,1.97442 -1.60533,3.58333 -3.58333,3.58333c-1.978,0 -3.58333,-1.60892 -3.58333,-3.58333M71.66667,78.83333c0,1.97442 1.60533,3.58333 3.58333,3.58333c1.978,0 3.58333,-1.60892 3.58333,-3.58333c0,-1.97442 -1.60533,-3.58333 -3.58333,-3.58333c-1.978,0 -3.58333,1.60892 -3.58333,3.58333" fill="#784719"></path><path d="M86,39.41667c-16.32567,0 -39.41667,7.48558 -39.41667,60.91667l17.91667,13.4375v-38.52083l32.25,-17.91667l10.75,14.33333v43l17.91667,-17.91667c0,-10.81808 -0.91375,-51.95833 -28.66667,-51.95833l-3.58333,-5.375z" fill="#795548"></path></g></g></svg>