<svg xmlns="http://www.w3.org/2000/svg" x="0px" y="0px"
width="220" height="223"
viewBox="0 0 172 172"
style=" fill:#000000;"><g fill="none" fill-rule="nonzero" stroke="none" stroke-width="1" stroke-linecap="butt" stroke-linejoin="miter" stroke-miterlimit="10" stroke-dasharray="" stroke-dashoffset="0" font-family="none" font-weight="none" font-size="none" text-anchor="none" style="mix-blend-mode: normal"><path d="M0,172v-172h172v172z" fill="none"></path><g><path d="M86,14.33333c-39.58041,0 -71.66667,32.08626 -71.66667,71.66667c0,39.58041 32.08626,71.66667 71.66667,71.66667c39.58041,0 71.66667,-32.08626 71.66667,-71.66667c0,-39.58041 -32.08626,-71.66667 -71.66667,-71.66667z" fill="#ffb443"></path><path d="M100.33333,111.08333c0,0 0,14.33333 -14.33333,14.33333c-14.33333,0 -14.33333,-14.33333 -14.33333,-14.33333" fill="#ff9800"></path><path d="M86,157.66667c16.0605,0 30.83458,-5.34633 42.78142,-14.26883c-2.21808,-27.1115 -29.34392,-32.3145 -29.34392,-32.3145l-13.4375,2.75917l-13.4375,-2.75917c0,0 -27.133,5.10267 -29.3475,32.3145c11.95042,8.9225 26.7245,14.26883 42.785,14.26883z" fill="#673ab7"></path><path d="M86,132.58333c10.96142,0 19.98783,-8.213 21.31367,-18.8125c-3.16767,-1.42617 -5.74408,-2.17508 -7.00183,-2.48325c-0.11108,7.81525 -6.46792,14.12908 -14.31183,14.12908c-7.8475,0 -14.20433,-6.31383 -14.31183,-14.13625c-1.26492,0.30817 -3.83775,1.04992 -7.00542,2.46533c1.3115,10.61383 10.34508,18.83758 21.31725,18.83758z" fill="#311b92"></path><path d="M114.66667,80.625c0,2.967 -2.408,5.375 -5.375,5.375c-2.97058,0 -5.375,-2.408 -5.375,-5.375c0,-2.967 2.40442,-5.375 5.375,-5.375c2.967,0 5.375,2.408 5.375,5.375M68.08333,80.625c0,-2.967 -2.408,-5.375 -5.375,-5.375c-2.967,0 -5.375,2.408 -5.375,5.375c0,2.967 2.408,5.375 5.375,5.375c2.967,0 5.375,-2.408 5.375,-5.375M100.33333,111.08333v-14.33333h-28.66667v14.33333c0,0 0,14.33333 14.33333,14.33333c14.33333,0 14.33333,-14.33333 14.33333,-14.33333z" fill="#a0530e"></path><path d="M111.08333,66.93667c0,-21.06642 -50.16667,-13.71342 -50.16667,0v15.73442c0,13.70267 11.22658,24.8325 25.08333,24.8325c13.85317,0 25.08333,-11.12625 25.08333,-24.8325z" fill="#c16e14"></path><path d="M86,39.41667c-17.415,0 -28.66667,15.45492 -28.66667,29.283v6.55033l7.16667,7.16667v-14.33333l32.96667,-10.75l10.03333,10.75v14.33333l7.16667,-7.16667v-2.89892c0,-11.53117 -2.97775,-24.37742 -17.2,-27.20467l-2.87025,-5.72975z" fill="#4e342e"></path><path d="M93.16667,78.83333c0,-1.97442 1.60533,-3.58333 3.58333,-3.58333c1.978,0 3.58333,1.60892 3.58333,3.58333c0,1.97442 -1.60533,3.58333 -3.58333,3.58333c-1.978,0 -3.58333,-1.60892 -3.58333,-3.58333M71.66667,78.83333c0,1.97442 1.60533,3.58333 3.58333,3.58333c1.978,0 3.58333,-1.60892 3.58333,-3.58333c0,-1.97442 -1.60533,-3.58333 -3.58333,-3.58333c-1.978,0 -3.58333,1.60892 -3.58333,3.58333" fill="#212121"></path></g></g></svg>