<svg xmlns="http://www.w3.org/2000/svg" x="0px" y="0px"
width="35" height="35"
viewBox="0 0 172 172"
style=" fill:#000000;"><g fill="none" fill-rule="nonzero" stroke="none" stroke-width="none" stroke-linecap="butt" stroke-linejoin="miter" stroke-miterlimit="10" stroke-dasharray="" stroke-dashoffset="0" font-family="none" font-weight="none" font-size="none" text-anchor="none" style="mix-blend-mode: normal"><path d="M0,172v-172h172v172z" fill="none" stroke="none" stroke-width="1"></path><g fill="#ff9800" stroke="none" stroke-width="1"><path d="M86,17.2c-37.9948,0 -68.8,30.8052 -68.8,68.8c0,37.9948 30.8052,68.8 68.8,68.8c37.9948,0 68.8,-30.8052 68.8,-68.8c0,-37.9948 -30.8052,-68.8 -68.8,-68.8z"></path></g><g fill="#ffffff" stroke="none" stroke-width="1"><path d="M79.86281,89.24v-7.48h5.61c2.36667,0 4.12,-0.62 5.26,-1.86c1.14,-1.24667 1.71,-2.97333 1.71,-5.18v0c0,-2.00667 -0.57,-3.61333 -1.71,-4.82c-1.14,-1.20667 -2.79,-1.81 -4.95,-1.81v0c-1.87333,0 -3.44667,0.54667 -4.72,1.64c-1.28,1.09333 -1.92,2.52667 -1.92,4.3v0h-9.67l-0.07,-0.2c-0.13333,-3.9 1.36,-7.11333 4.48,-9.64c3.12,-2.52667 6.99333,-3.79 11.62,-3.79v0c5.15333,0 9.26,1.23 12.32,3.69c3.06667,2.46 4.6,5.97 4.6,10.53v0c0,2.16 -0.68333,4.21333 -2.05,6.16c-1.36667,1.95333 -3.24667,3.47667 -5.64,4.57v0c2.76,0.98 4.86333,2.48333 6.31,4.51c1.44667,2.02667 2.17,4.38333 2.17,7.07v0c0,4.56 -1.66,8.14333 -4.98,10.75c-3.31333,2.61333 -7.55667,3.92 -12.73,3.92v0c-4.62667,0 -8.59667,-1.22667 -11.91,-3.68c-3.31333,-2.44667 -4.91333,-5.90333 -4.8,-10.37v0l0.07,-0.21h9.67c0,1.92 0.68333,3.5 2.05,4.74c1.36667,1.24 3.1,1.86 5.2,1.86v0c2.3,0 4.11667,-0.63667 5.45,-1.91c1.33333,-1.28 2,-3.01333 2,-5.2v0c0,-2.62 -0.65667,-4.54 -1.97,-5.76c-1.30667,-1.22 -3.23667,-1.83 -5.79,-1.83v0z"></path></g><path d="M58.78719,121.6v-71.2h54.42562v71.2z" fill="#ff0000" stroke="#50e3c2" stroke-width="3" opacity="0"></path></g></svg>