<svg xmlns="http://www.w3.org/2000/svg" x="0px" y="0px"
width="35" height="35"
viewBox="0 0 172 172"
style=" fill:#000000;"><g fill="none" fill-rule="nonzero" stroke="none" stroke-width="1" stroke-linecap="butt" stroke-linejoin="miter" stroke-miterlimit="10" stroke-dasharray="" stroke-dashoffset="0" font-family="none" font-weight="none" font-size="none" text-anchor="none" style="mix-blend-mode: normal"><path d="M0,172v-172h172v172z" fill="none"></path><g fill="#ff9800"><path d="M86,17.2c-37.9948,0 -68.8,30.8052 -68.8,68.8c0,37.9948 30.8052,68.8 68.8,68.8c37.9948,0 68.8,-30.8052 68.8,-68.8c0,-37.9948 -30.8052,-68.8 -68.8,-68.8z"></path></g><g fill="#ffffff"><path d="M98.545,61.115v31.24h5.64v6.64h-5.64v4.88l5.3,1.03v5.98h-20.58v-5.98l5.33,-1.03v-4.88h-20.3l-0.48,-4.89l20.68,-32.99zM87.575,75.785l-10.43,16.57h11.45v-17.94l-0.2,-0.07z"></path></g></g></svg>