<svg xmlns="http://www.w3.org/2000/svg" x="0px" y="0px"
width="35" height="35"
viewBox="0 0 172 172"
style=" fill:#000000;"><g fill="none" fill-rule="nonzero" stroke="none" stroke-width="1" stroke-linecap="butt" stroke-linejoin="miter" stroke-miterlimit="10" stroke-dasharray="" stroke-dashoffset="0" font-family="none" font-weight="none" font-size="none" text-anchor="none" style="mix-blend-mode: normal"><path d="M0,172v-172h172v172z" fill="none"></path><g fill="#ff9800"><path d="M86,17.2c-37.9948,0 -68.8,30.8052 -68.8,68.8c0,37.9948 30.8052,68.8 68.8,68.8c37.9948,0 68.8,-30.8052 68.8,-68.8c0,-37.9948 -30.8052,-68.8 -68.8,-68.8z"></path></g><g fill="#ffffff"><path d="M101.76286,72.105h-6.15l-0.89,-3.35h-13.4l-1.4,11.49c0.93333,-0.68667 2.05,-1.25333 3.35,-1.7c1.3,-0.44 2.73333,-0.67333 4.3,-0.7v0c4.78667,-0.06667 8.49,1.38333 11.11,4.35c2.62,2.96 3.93,7.08333 3.93,12.37v0c0,4.78667 -1.44,8.76333 -4.32,11.93c-2.88,3.16667 -7.03333,4.75 -12.46,4.75v0c-4.56,0 -8.46667,-1.24667 -11.72,-3.74c-3.26,-2.5 -4.83333,-5.93667 -4.72,-10.31v0l0.07,-0.17l9.57,-0.48c0,2.21333 0.62667,3.94 1.88,5.18c1.25333,1.24 2.89333,1.86 4.92,1.86v0c2.32667,0 4.04667,-0.83 5.16,-2.49c1.12,-1.66667 1.68,-3.82 1.68,-6.46v0c0,-2.87333 -0.59333,-5.17667 -1.78,-6.91c-1.18667,-1.73333 -2.95333,-2.6 -5.3,-2.6v0c-1.89333,0 -3.34667,0.35333 -4.36,1.06c-1.01333,0.70667 -1.73667,1.66667 -2.17,2.88v0l-8.82,-0.59l2.88,-27.72h28.64z"></path></g></g></svg>