<svg xmlns="http://www.w3.org/2000/svg" x="0px" y="0px"
width="35" height="35"
viewBox="0 0 172 172"
style=" fill:#000000;"><g fill="none" fill-rule="nonzero" stroke="none" stroke-width="1" stroke-linecap="butt" stroke-linejoin="miter" stroke-miterlimit="10" stroke-dasharray="" stroke-dashoffset="0" font-family="none" font-weight="none" font-size="none" text-anchor="none" style="mix-blend-mode: normal"><path d="M0,172v-172h172v172z" fill="none"></path><g fill="#ff9800"><path d="M86,17.2c-37.9948,0 -68.8,30.8052 -68.8,68.8c0,37.9948 30.8052,68.8 68.8,68.8c37.9948,0 68.8,-30.8052 68.8,-68.8c0,-37.9948 -30.8052,-68.8 -68.8,-68.8z"></path></g><g fill="#ffffff"><path d="M103.38303,111.24h-33.97v-6.53l16.09,-17.26c2.32667,-2.66667 3.98,-4.91667 4.96,-6.75c0.98,-1.83333 1.47,-3.53667 1.47,-5.11v0c0,-2.09333 -0.56333,-3.80667 -1.69,-5.14c-1.12667,-1.33333 -2.72667,-2 -4.8,-2v0c-2.30667,0 -4.05667,0.78 -5.25,2.34c-1.2,1.56 -1.8,3.64 -1.8,6.24v0h-9.7l-0.07,-0.21c-0.11333,-4.48667 1.36333,-8.28667 4.43,-11.4c3.06,-3.10667 7.19,-4.66 12.39,-4.66v0c5.12667,0 9.16,1.33333 12.1,4c2.93333,2.66 4.4,6.21333 4.4,10.66v0c0,3.00667 -0.82333,5.78667 -2.47,8.34c-1.65333,2.55333 -4.39333,5.88 -8.22,9.98v0l-8.86,9.67l0.07,0.17h12.92l0.41,-4.92h7.59z"></path></g></g></svg>