<svg xmlns="http://www.w3.org/2000/svg" x="0px" y="0px"
width="35" height="35"
viewBox="0 0 172 172"
style=" fill:#000000;"><g fill="none" fill-rule="nonzero" stroke="none" stroke-width="1" stroke-linecap="butt" stroke-linejoin="miter" stroke-miterlimit="10" stroke-dasharray="" stroke-dashoffset="0" font-family="none" font-weight="none" font-size="none" text-anchor="none" style="mix-blend-mode: normal"><path d="M0,172v-172h172v172z" fill="none"></path><g fill="#ff9800"><path d="M86,6.61538c-43.77524,0 -79.38462,35.60938 -79.38462,79.38462c0,43.77524 35.60938,79.38462 79.38462,79.38462c43.77524,0 79.38462,-35.60937 79.38462,-79.38462c0,-43.77524 -35.60937,-79.38462 -79.38462,-79.38462zM86,19.84615c36.61719,0 66.15385,29.53666 66.15385,66.15385c0,36.61719 -29.53666,66.15385 -66.15385,66.15385c-36.61719,0 -66.15385,-29.53666 -66.15385,-66.15385c0,-36.61719 29.53666,-66.15385 66.15385,-66.15385zM113.70192,46.72115c-0.98197,0.15505 -1.80889,0.67188 -2.48077,1.65385l-32.45673,48.16827l-15.29808,-15.09135c-1.31791,-1.98978 -3.85036,-2.14483 -5.16827,-0.82692l-5.99519,5.99519c-1.31791,1.98978 -1.31791,4.67728 0,5.99519l23.15385,23.15385c1.31791,0.67188 3.17849,2.06731 5.16827,2.06731c1.31791,0 3.4369,-0.69772 4.75481,-2.6875l39.69231,-58.29808c1.31791,-1.98978 0.56851,-3.85036 -2.06731,-5.16827l-6.61538,-4.75481c-0.67187,-0.33594 -1.70553,-0.36178 -2.6875,-0.20673z"></path></g></g></svg>